<svg xml:space="preserve" style="max-height: 500px" viewBox="54 63 385 377" y="0px" x="0px" xmlns:xlink="http://www.w3.org/1999/xlink" xmlns="http://www.w3.org/2000/svg" version="1.1" width="385" height="377">
<g id="Background_2">
	<g>
		<g>
			<g>
				<g>
					<rect height="0.25" width="500" style="fill:#D1E3FF;" y="382.398"/>
					<rect height="0.25" width="23.253" style="fill:#D1E3FF;" y="388.833" x="422.333"/>
					<rect height="0.25" width="110.434" style="fill:#D1E3FF;" y="394.264" x="250.566"/>
					<rect height="0.25" width="10.833" style="fill:#D1E3FF;" y="394.389" x="192.5"/>
					<rect height="0.25" width="37.556" style="fill:#D1E3FF;" y="391.389" x="78"/>
					<rect height="0.25" width="21.985" style="fill:#D1E3FF;" y="388.833" x="390.667"/>
					<rect height="0.25" width="18.187" style="fill:#D1E3FF;" y="391.389" x="51.646"/>
					<path d="M237.014,337.8H43.915c-3.147,0-5.708-2.561-5.708-5.708V60.66c0-3.147,2.561-5.708,5.708-5.708&#xA;&#9;&#9;&#9;&#9;&#9;&#9;h193.099c3.146,0,5.707,2.561,5.707,5.708v271.432C242.721,335.239,240.16,337.8,237.014,337.8z M43.915,55.203&#xA;&#9;&#9;&#9;&#9;&#9;&#9;c-3.01,0-5.458,2.448-5.458,5.458v271.432c0,3.01,2.448,5.458,5.458,5.458h193.099c3.009,0,5.457-2.448,5.457-5.458V60.66&#xA;&#9;&#9;&#9;&#9;&#9;&#9;c0-3.009-2.448-5.458-5.457-5.458H43.915z" style="fill:#D1E3FF;"/>
					<path d="M453.31,337.8H260.212c-3.146,0-5.707-2.561-5.707-5.708V60.66c0-3.147,2.561-5.708,5.707-5.708&#xA;&#9;&#9;&#9;&#9;&#9;&#9;H453.31c3.148,0,5.708,2.561,5.708,5.708v271.432C459.019,335.239,456.458,337.8,453.31,337.8z M260.212,55.203&#xA;&#9;&#9;&#9;&#9;&#9;&#9;c-3.009,0-5.457,2.448-5.457,5.458v271.432c0,3.01,2.448,5.458,5.457,5.458H453.31c3.01,0,5.458-2.448,5.458-5.458V60.66&#xA;&#9;&#9;&#9;&#9;&#9;&#9;c0-3.009-2.448-5.458-5.458-5.458H260.212z" style="fill:#D1E3FF;"/>
				</g>
			</g>
		</g>
		<g>
			<g>
				<g>
					<g>
						
							<rect height="131.566" width="75.574" style="fill:#D1E3FF;" transform="matrix(-1 -1.224647e-16 1.224647e-16 -1 722.7029 278.6665)" y="73.55" x="323.565"/>
						
							<rect height="131.566" width="75.574" style="fill:#F3F8FF;" transform="matrix(-1 -1.224647e-16 1.224647e-16 -1 714.5361 278.6665)" y="73.55" x="319.481"/>
						
							<rect height="60.915" width="119.217" style="fill:#FFFFFF;" transform="matrix(-1.836970e-16 1 -1 -1.836970e-16 496.6013 -217.9348)" y="108.876" x="297.659"/>
						
							<rect height="3.087" width="119.217" style="fill:#D1E3FF;" transform="matrix(-1.836970e-16 1 -1 -1.836970e-16 467.6875 -189.021)" y="137.79" x="268.746"/>
						
							<rect height="8.289" width="69.51" style="fill:#F3F8FF;" transform="matrix(-1 -1.224647e-16 1.224647e-16 -1 714.5361 332.0631)" y="161.887" x="322.513"/>
					</g>
				</g>
			</g>
			<g>
				<g>
					<g>
						
							<rect height="131.566" width="75.574" style="fill:#D1E3FF;" transform="matrix(-1 -1.224647e-16 1.224647e-16 -1 465.8543 278.6665)" y="73.55" x="195.14"/>
						
							<rect height="131.566" width="75.574" style="fill:#F3F8FF;" transform="matrix(-1 -1.224647e-16 1.224647e-16 -1 457.6875 278.6665)" y="73.55" x="191.057"/>
						
							<rect height="60.915" width="119.217" style="fill:#FFFFFF;" transform="matrix(-1.836970e-16 1 -1 -1.836970e-16 368.177 -89.5105)" y="108.876" x="169.235"/>
						
							<rect height="3.087" width="119.217" style="fill:#D1E3FF;" transform="matrix(-1.836970e-16 1 -1 -1.836970e-16 339.2632 -60.5967)" y="137.79" x="140.321"/>
						
							<rect height="8.289" width="69.51" style="fill:#F3F8FF;" transform="matrix(-1 -1.224647e-16 1.224647e-16 -1 457.6875 332.0631)" y="161.887" x="194.089"/>
					</g>
				</g>
			</g>
			<g>
				<g>
					<g>
						
							<rect height="131.566" width="75.574" style="fill:#D1E3FF;" transform="matrix(-1 -1.224647e-16 1.224647e-16 -1 209.0057 278.6665)" y="73.55" x="66.716"/>
						
							<rect height="131.566" width="75.574" style="fill:#F3F8FF;" transform="matrix(-1 -1.224647e-16 1.224647e-16 -1 200.8389 278.6665)" y="73.55" x="62.633"/>
						
							<rect height="60.915" width="119.217" style="fill:#FFFFFF;" transform="matrix(-1.836970e-16 1 -1 -1.836970e-16 239.7527 38.9138)" y="108.876" x="40.811"/>
						
							<rect height="3.087" width="119.217" style="fill:#D1E3FF;" transform="matrix(-1.836970e-16 1 -1 -1.836970e-16 210.8389 67.8276)" y="137.79" x="11.897"/>
						
							<rect height="8.289" width="69.51" style="fill:#F3F8FF;" transform="matrix(-1 -1.224647e-16 1.224647e-16 -1 200.8389 332.0631)" y="161.887" x="65.664"/>
					</g>
				</g>
			</g>
			<g>
				<g>
					<path d="M140.02,286.518c-13.626,1.879-22.058-27.736,8.039-52.813&#xA;&#9;&#9;&#9;&#9;&#9;&#9;C146.433,262.734,163.776,283.242,140.02,286.518z" style="fill:#D1E3FF;"/>
					<path d="M130.016,325.309c-19.757-13.846-6.234-62.239,54.913-58.732&#xA;&#9;&#9;&#9;&#9;&#9;&#9;C158.472,302.197,164.46,349.449,130.016,325.309z" style="fill:#CADEFC;"/>
					<path d="M136.987,324.983c13.134-14.144-5.559-49.733-52.805-36.737&#xA;&#9;&#9;&#9;&#9;&#9;&#9;C110.851,311.674,114.09,349.643,136.987,324.983z" style="fill:#CADEFC;"/>
					<path d="M120.145,304.358c-4.541-5.53-9.909-11.752-8.605-18.324c1.346-6.635,4.553-11.475,1.967-18.477&#xA;&#9;&#9;&#9;&#9;&#9;&#9;c-3.098-8.395-2.497-18.418,2.74-17.581c5.228,0.843,11.111,6.98,10.954,15.118c-0.095,7.877,5.052,10.393,9.895,14.587&#xA;&#9;&#9;&#9;&#9;&#9;&#9;c4.827,4.158,6.715,10.306,7.582,16.354c1.528,9.539,13.874,7.73,17.157,16.019c3.382,7.989-3.373,18.645-14.183,21.094&#xA;&#9;&#9;&#9;&#9;&#9;&#9;c-10.85,2.458-18.509,3.976-25.878-4.454C114.276,319.73,126.86,312.283,120.145,304.358z" style="fill:#F3F8FF;"/>
					<g>
						<polygon points="157.328,382.398 116.724,382.398 113.659,327.081 160.392,327.081" style="fill:#E3EEFF;"/>
						<rect height="5.959" width="52.785" style="fill:#E3EEFF;" y="325.948" x="110.633"/>
					</g>
				</g>
			</g>
			<g>
				
					<rect height="118.475" width="27.318" style="fill:#E3EEFF;" transform="matrix(-1 -1.224647e-16 1.224647e-16 -1 820.7982 631.3082)" y="256.417" x="396.74"/>
				
					<rect height="7.507" width="236.155" style="fill:#E3EEFF;" transform="matrix(-1 -1.224647e-16 1.224647e-16 -1 601.4702 757.2899)" y="374.892" x="182.657"/>
				<rect height="118.475" width="219.328" style="fill:#F3F8FF;" y="256.417" x="177.412"/>
				<rect height="38.855" width="197.848" style="fill:#E3EEFF;" y="270.999" x="188.152"/>
				<rect height="38.855" width="197.848" style="fill:#E3EEFF;" y="321.453" x="188.152"/>
				<path d="M225.535,293.091h123.083c1.465,0,2.664-1.199,2.664-2.664l0,0c0-1.465-1.199-2.664-2.664-2.664&#xA;&#9;&#9;&#9;&#9;&#9;H225.535c-1.465,0-2.664,1.199-2.664,2.664l0,0C222.87,291.892,224.069,293.091,225.535,293.091z" style="fill:#F3F8FF;"/>
				<path d="M225.535,343.545h123.083c1.465,0,2.664-1.199,2.664-2.664l0,0c0-1.465-1.199-2.664-2.664-2.664&#xA;&#9;&#9;&#9;&#9;&#9;H225.535c-1.465,0-2.664,1.199-2.664,2.664l0,0C222.87,342.346,224.069,343.545,225.535,343.545z" style="fill:#F3F8FF;"/>
			</g>
			<g>
				<path d="M336.186,239.13c0,0,31.308,29.658,49.885-0.123c0,0-4.94-9.567-10.152-10.39&#xA;&#9;&#9;&#9;&#9;&#9;c-5.211-0.822-5.423,8.282-10.024,5.474c-4.601-2.808-9.93-12.417-12.848-7.286c-2.918,5.131-6.927-2.183-11.299-2.6&#xA;&#9;&#9;&#9;&#9;&#9;C337.376,223.787,336.186,239.13,336.186,239.13z" style="fill:#F3F8FF;"/>
				<path d="M388.063,237.083c0,0-0.688,19.333-27.063,19.333c-26.375,0-27.063-19.333-27.063-19.333H388.063&#xA;&#9;&#9;&#9;&#9;&#9;z" style="fill:#E3EEFF;"/>
			</g>
			<g>
				<path d="M254.612,227h15.19v29.417h-44.607l0,0C225.196,240.17,238.366,227,254.612,227z" style="fill:#F3F8FF;"/>
				<rect height="29.417" width="14.011" style="fill:#D1E3FF;" y="227" x="269.803"/>
			</g>
		</g>
	</g>
</g>
<g style="display:none;" id="Background_1">
	<path d="M208.692,124.907c-36.955,0.464-67.33-18.481-98.437,10.723&#xA;&#9;&#9;c-23.934,22.469-28.366,56.494-16.194,85.638c29.187,69.881,134.447,93.809,201.363,68.96&#xA;&#9;&#9;c76.909-28.56,132.534-112.769,87.381-173.33c-14.123-18.942-53.135-36.565-76.095-36.028&#xA;&#9;&#9;C265.447,81.833,249.519,124.395,208.692,124.907z" style="display:inline;opacity:0.4;fill:#D4E8FF;"/>
</g>
<g id="Objects">
	<g>
		<ellipse ry="11.323" rx="193.889" cy="416.238" cx="250" style="fill:#F0F6FF;"/>
		<g>
			<g>
				<path d="M218.025,197.761c-0.271,0.411-0.441,0.651-0.655,0.947c-0.204,0.287-0.408,0.556-0.613,0.824&#xA;&#9;&#9;&#9;&#9;&#9;c-0.412,0.54-0.84,1.041-1.269,1.548c-0.867,0.996-1.751,1.967-2.685,2.881c-1.868,1.83-3.878,3.495-5.973,5.04&#xA;&#9;&#9;&#9;&#9;&#9;c-2.108,1.53-4.343,2.879-6.651,4.083c-1.17,0.571-2.335,1.153-3.544,1.634l-1.811,0.721l-0.504,0.194&#xA;&#9;&#9;&#9;&#9;&#9;c-0.282,0.093-0.546,0.193-0.85,0.258c-0.588,0.141-1.217,0.23-1.85,0.215c-1.273-0.003-2.48-0.367-3.414-0.858&#xA;&#9;&#9;&#9;&#9;&#9;c-0.949-0.492-1.686-1.08-2.308-1.669c-1.231-1.189-2.069-2.403-2.792-3.6c-1.41-2.408-2.373-4.793-3.192-7.195&#xA;&#9;&#9;&#9;&#9;&#9;c-1.599-4.813-2.68-9.573-3.352-14.517l4.18-0.918c0.755,2.19,1.533,4.455,2.4,6.629c0.827,2.194,1.722,4.353,2.716,6.411&#xA;&#9;&#9;&#9;&#9;&#9;c0.989,2.049,2.045,4.056,3.243,5.694c0.582,0.818,1.22,1.53,1.772,1.96c0.271,0.213,0.513,0.341,0.646,0.378&#xA;&#9;&#9;&#9;&#9;&#9;c0.141,0.042,0.127,0,0.059-0.023c-0.031-0.002-0.061-0.017-0.068-0.021c-0.008,0.007,0.004-0.02,0.008-0.017l0.326-0.158&#xA;&#9;&#9;&#9;&#9;&#9;l1.494-0.723c0.995-0.48,1.946-1.051,2.914-1.576c1.9-1.129,3.717-2.384,5.477-3.712c1.738-1.359,3.384-2.834,4.926-4.396&#xA;&#9;&#9;&#9;&#9;&#9;c0.788-0.765,1.524-1.575,2.238-2.389c0.349-0.409,0.7-0.825,1.023-1.236l0.483-0.609l0.392-0.522L218.025,197.761z" style="fill:#CE7A63;"/>
				<polygon points="205.889,197.333 210.959,209.487 207.293,211.784 201.593,200.747" style="fill:#14365B;"/>
				<path d="M220.239,187.09c-8.27-0.114-16.667,10.361-16.88,10.619l6.546,15.377&#xA;&#9;&#9;&#9;&#9;&#9;c0,0,14.548-11.811,15.277-16.427C225.941,191.852,225.482,187.162,220.239,187.09z" style="fill:#0053CC;"/>
				<path d="M180.031,185.771l-5.725-4.449l-1.153,8.755c0,0,5.558,2.182,8.52,0.293l-0.08-1.598&#xA;&#9;&#9;&#9;&#9;&#9;C181.534,187.592,180.963,186.496,180.031,185.771z" style="fill:#CE7A63;"/>
				<polygon points="166.663,180.875 167.02,187.535 173.153,190.076 174.306,181.322" style="fill:#CE7A63;"/>
				<path d="M291.952,185.064l8.839-2.212l-6.178-6.309c0,0-5.735,2.334-4.338,7.336L291.952,185.064z" style="fill:#CE7A63;"/>
				<polygon points="305.231,181.278 304.5,174.338 294.613,176.543 300.791,182.852" style="fill:#CE7A63;"/>
				<polygon points="263.165,407.467 254.936,408.265 248.074,388.837 256.303,388.04" style="fill:#CE7A63;"/>
				<polygon points="351.273,366.64 345.207,372.522 329.635,360.364 335.702,354.482" style="fill:#CE7A63;"/>
				<path d="M343.46,371.384l4.659-8.271c0.169-0.301,0.516-0.427,0.834-0.304l7.075,2.744&#xA;&#9;&#9;&#9;&#9;&#9;c0.734,0.285,1.047,1.23,0.644,1.918c-1.674,2.856-2.626,4.15-4.675,7.787c-1.26,2.238-3.72,7.373-5.461,10.463&#xA;&#9;&#9;&#9;&#9;&#9;c-1.703,3.022-4.889,1.534-4.441,0.091c2.009-6.469,1.662-10.079,1.124-12.942C343.123,372.353,343.212,371.824,343.46,371.384z" style="fill:#14365B;"/>
				<path d="M253.303,405.743h10.024c0.365,0,0.694,0.253,0.792,0.609l2.18,7.931&#xA;&#9;&#9;&#9;&#9;&#9;c0.226,0.823-0.38,1.601-1.223,1.587c-3.503-0.06-5.214-0.265-9.622-0.265c-2.712,0-11.545,0.282-15.29,0.282&#xA;&#9;&#9;&#9;&#9;&#9;c-3.663,0-4.429-3.703-2.913-4.039c6.796-1.504,12.537-3.578,14.634-5.556C252.262,405.935,252.77,405.743,253.303,405.743z" style="fill:#14365B;"/>
				<polygon points="248.078,388.842 251.613,398.857 260.128,398.857 256.31,388.044" style="fill:#BC6753;"/>
				<polygon points="335.707,354.484 329.638,360.369 337.668,366.633 343.737,360.748" style="fill:#BC6753;"/>
				<path d="M212.188,189.764c0,0-3.395,2.586,19.509,47.293c12.959-4.183,26.353-8.506,32.659-10.542&#xA;&#9;&#9;&#9;&#9;&#9;c-4.839-13.115-7.5-21.306-9.952-50.635c0,0-7.323,0.72-14.458,2.649c-9.658,2.611-14.272,4.549-14.83,4.787&#xA;&#9;&#9;&#9;&#9;&#9;C218.934,185.954,212.188,189.764,212.188,189.764z" style="fill:#0053CC;"/>
				<path d="M233.086,162.305c0.605,5.074,2.493,14.118,6.859,16.224c0,0,0.258,5.261-8.608,8.123&#xA;&#9;&#9;&#9;&#9;&#9;c-9.749,3.147-6.221-3.336-6.221-3.336c4.911-2.988,3.499-6.892,1.376-10.3L233.086,162.305z" style="fill:#CE7A63;"/>
				<g>
					<path d="M216.701,187.337c2.411-1.25,5.48-2.768,8.415-4.024c4.691-2.004,9.255-3.278,14.832-4.788&#xA;&#9;&#9;&#9;&#9;&#9;&#9;c2.854-0.776,5.734-1.36,8.164-1.764c0.226,0.678-0.467,2.437-2.156,4.864c-5.347,4.448-16.755,10.214-25.168,10.002&#xA;&#9;&#9;&#9;&#9;&#9;&#9;C217.157,190.263,216.242,188.815,216.701,187.337z" style="fill:#CE7A63;"/>
					<path d="M245.957,181.626c-2.315,3.327-6.512,7.915-12.88,12.758c-5.801-0.864-9.719-1.79-12.288-2.756&#xA;&#9;&#9;&#9;&#9;&#9;&#9;C229.202,191.84,240.61,186.075,245.957,181.626z" style="fill:#14365B;"/>
				</g>
				<path d="M230.398,166.674l-3.904,6.337c0.506,0.806,0.966,1.64,1.307,2.485&#xA;&#9;&#9;&#9;&#9;&#9;c1.938-0.95,4.413-3.76,3.942-5.958C231.508,168.442,230.731,167.113,230.398,166.674z" style="fill:#BC6753;"/>
				<path d="M235.069,152.917c0.504,8.371,0.896,11.903-2.779,16.68c-5.529,7.186-15.921,5.974-18.916-2.077&#xA;&#9;&#9;&#9;&#9;&#9;c-2.696-7.247-3.068-19.719,4.661-24.019C225.65,139.265,234.565,144.546,235.069,152.917z" style="fill:#CE7A63;"/>
				
					<ellipse ry="15.444" rx="15.444" cy="134.487" cx="236.529" style="fill:#0F264C;" transform="matrix(0.2217 -0.9751 0.9751 0.2217 52.9577 335.3215)"/>
				<path d="M232.687,141.202c3.184,2.098,4.766,5.315,3.534,7.186c-1.233,1.871-4.813,1.688-7.997-0.41&#xA;&#9;&#9;&#9;&#9;&#9;c-3.184-2.098-4.766-5.315-3.534-7.186C225.922,138.921,229.503,139.104,232.687,141.202z" style="fill:#9FC6FF;"/>
				<path d="M231.021,158.627c0.833-1.917-2.065-7.619-1.438-9.752c-1.667-1.542-18.49,3.939-17.134-0.069&#xA;&#9;&#9;&#9;&#9;&#9;c1.297-3.833,5.399-8.931,14.759-6.799c10.037,2.286,10.875,10.933,9.75,13.692c-1.125,2.76-2.708,5.633-2.708,5.633&#xA;&#9;&#9;&#9;&#9;&#9;L231.021,158.627z" style="fill:#0F264C;"/>
				<path d="M237.275,160.256c0.04,1.738-0.726,3.332-1.73,4.35c-1.509,1.53-3.327,0.437-3.798-1.544&#xA;&#9;&#9;&#9;&#9;&#9;c-0.424-1.783-0.15-4.728,1.794-5.515C235.455,156.771,237.229,158.269,237.275,160.256z" style="fill:#CE7A63;"/>
				<path d="M231.696,237.056c0,0-15.139,73.841-6.696,98.194c8.781,25.33,23.074,60.693,23.074,60.693&#xA;&#9;&#9;&#9;&#9;&#9;l13.346-0.766c0,0-11.028-44.682-13.711-64.859c-3.699-27.817,12.178-102.361,12.178-102.361L231.696,237.056z" style="fill:#9FC6FF;"/>
				<polygon points="262.474,395.5 247.02,396.386 244.542,390.313 261.583,388.542" style="fill:#0053CC;"/>
				<path d="M247.71,242.743c-2.32,8.58-0.38,21.44,4,30.46c1.07-7.01,2.21-13.78,3.29-19.85&#xA;&#9;&#9;&#9;&#9;&#9;C252.75,249.043,250.27,245.143,247.71,242.743z" style="fill:#77B3FC;"/>
				<path d="M240.321,234.272c0,0,22.482,53.685,37.364,83.227c12.02,23.861,56.537,48.831,56.537,48.831&#xA;&#9;&#9;&#9;&#9;&#9;l7.973-8.479c0,0-33.277-29.552-41.576-45.733c-26.559-51.789-21.098-74.406-36.264-85.604L240.321,234.272z" style="fill:#9FC6FF;"/>
				<polygon points="343.706,356.641 332.712,368.331 325.75,364.667 338.417,351.75" style="fill:#0053CC;"/>
				<path d="M264.226,224.44l2.416,2.448c0.188,0.19-0.007,0.508-0.384,0.63l-34.25,11.055&#xA;&#9;&#9;&#9;&#9;&#9;c-0.294,0.095-0.585,0.03-0.663-0.15l-1.238-2.828c-0.086-0.196,0.114-0.45,0.436-0.554l33.072-10.675&#xA;&#9;&#9;&#9;&#9;&#9;C263.858,224.288,264.105,224.318,264.226,224.44z" style="fill:#14365B;"/>
				<path d="M260.978,229.572l0.886-0.286c0.176-0.057,0.281-0.191,0.233-0.298l-1.641-3.664&#xA;&#9;&#9;&#9;&#9;&#9;c-0.048-0.107-0.232-0.148-0.408-0.091l-0.886,0.286c-0.176,0.057-0.281,0.191-0.233,0.298l1.641,3.664&#xA;&#9;&#9;&#9;&#9;&#9;C260.618,229.587,260.801,229.629,260.978,229.572z" style="fill:#9FC6FF;"/>
				<path d="M234.599,238.086l0.886-0.286c0.176-0.057,0.281-0.191,0.233-0.298l-1.641-3.664&#xA;&#9;&#9;&#9;&#9;&#9;c-0.048-0.107-0.232-0.148-0.408-0.091l-0.886,0.286c-0.176,0.057-0.281,0.191-0.233,0.299l1.641,3.664&#xA;&#9;&#9;&#9;&#9;&#9;C234.239,238.102,234.423,238.143,234.599,238.086z" style="fill:#9FC6FF;"/>
				<path d="M247.788,233.829l0.886-0.286c0.176-0.057,0.281-0.191,0.233-0.298l-1.641-3.664&#xA;&#9;&#9;&#9;&#9;&#9;c-0.048-0.107-0.232-0.148-0.408-0.092l-0.886,0.286c-0.176,0.057-0.281,0.191-0.233,0.298l1.641,3.664&#xA;&#9;&#9;&#9;&#9;&#9;C247.428,233.845,247.612,233.886,247.788,233.829z" style="fill:#9FC6FF;"/>
				<path d="M222.75,156.778c0.083,0.676-0.209,1.269-0.651,1.323c-0.442,0.054-0.868-0.451-0.95-1.127&#xA;&#9;&#9;&#9;&#9;&#9;c-0.083-0.676,0.209-1.269,0.651-1.323C222.242,155.596,222.668,156.101,222.75,156.778z" style="fill:#0F264C;"/>
				<path d="M215.103,157.711c0.083,0.676-0.209,1.269-0.651,1.323s-0.868-0.451-0.95-1.127&#xA;&#9;&#9;&#9;&#9;&#9;c-0.083-0.677,0.209-1.269,0.651-1.323C214.595,156.53,215.021,157.035,215.103,157.711z" style="fill:#0F264C;"/>
				<path d="M214.353,156.598l-1.682-0.27C212.671,156.328,213.659,157.495,214.353,156.598z" style="fill:#0F264C;"/>
				<path d="M217.266,158.627c0,0-0.792,3.053-1.885,4.612c0.995,0.725,2.467,0.158,2.467,0.158&#xA;&#9;&#9;&#9;&#9;&#9;L217.266,158.627z" style="fill:#BA4D3C;"/>
				<path d="M220.53,165.773c-0.1,0-0.186-0.075-0.198-0.176c-0.013-0.11,0.065-0.209,0.174-0.223&#xA;&#9;&#9;&#9;&#9;&#9;c2.961-0.361,4.103-2.606,4.114-2.628c0.049-0.1,0.169-0.142,0.268-0.091c0.099,0.049,0.14,0.169,0.091,0.268&#xA;&#9;&#9;&#9;&#9;&#9;c-0.049,0.1-1.242,2.46-4.425,2.849C220.547,165.772,220.539,165.773,220.53,165.773z" style="fill:#0F264C;"/>
				<path d="M223.698,154.376c-0.093,0-0.186-0.032-0.262-0.097c-1.338-1.155-2.731-0.787-2.789-0.769&#xA;&#9;&#9;&#9;&#9;&#9;c-0.212,0.059-0.433-0.064-0.494-0.276c-0.06-0.212,0.062-0.432,0.273-0.493c0.077-0.022,1.856-0.513,3.533,0.932&#xA;&#9;&#9;&#9;&#9;&#9;c0.167,0.145,0.186,0.397,0.042,0.565C223.921,154.329,223.81,154.376,223.698,154.376z" style="fill:#0F264C;"/>
				<path d="M211.152,154.615c-0.06,0-0.122-0.014-0.179-0.043c-0.198-0.099-0.277-0.34-0.178-0.537&#xA;&#9;&#9;&#9;&#9;&#9;c0.995-1.979,2.829-2.206,2.906-2.214c0.22-0.02,0.417,0.134,0.442,0.354c0.024,0.219-0.133,0.417-0.351,0.442l0,0&#xA;&#9;&#9;&#9;&#9;&#9;c-0.061,0.007-1.489,0.2-2.283,1.778C211.44,154.534,211.299,154.615,211.152,154.615z" style="fill:#0F264C;"/>
				<path d="M260.975,183.689l0.376,0.479l0.47,0.568c0.319,0.383,0.655,0.775,0.999,1.157&#xA;&#9;&#9;&#9;&#9;&#9;c0.694,0.765,1.414,1.523,2.178,2.245c1.501,1.468,3.094,2.866,4.772,4.163c1.7,1.266,3.444,2.485,5.266,3.59&#xA;&#9;&#9;&#9;&#9;&#9;c0.915,0.543,1.847,1.065,2.782,1.58l1.429,0.727l0.698,0.354c0.169,0.075,0.339,0.161,0.498,0.217&#xA;&#9;&#9;&#9;&#9;&#9;c0.657,0.264,1.175,0.335,1.611,0.328c0.433-0.016,0.867-0.149,1.399-0.517c1.078-0.721,2.212-2.328,3.089-4.125&#xA;&#9;&#9;&#9;&#9;&#9;c0.908-1.808,1.632-3.847,2.225-5.942c0.631-2.077,1.122-4.298,1.534-6.4l4.271,0.27c0.045,4.889-0.456,9.602-2.08,14.518&#xA;&#9;&#9;&#9;&#9;&#9;c-0.414,1.228-0.955,2.449-1.654,3.676c-0.703,1.216-1.587,2.46-2.844,3.556c-1.235,1.094-2.935,2.023-4.784,2.345&#xA;&#9;&#9;&#9;&#9;&#9;c-1.84,0.34-3.669,0.116-5.184-0.36c-0.392-0.112-0.751-0.249-1.117-0.386l-0.871-0.361l-1.703-0.715&#xA;&#9;&#9;&#9;&#9;&#9;c-1.123-0.505-2.236-1.041-3.327-1.617c-2.183-1.155-4.293-2.454-6.309-3.895c-2.001-1.46-3.94-3.018-5.75-4.74&#xA;&#9;&#9;&#9;&#9;&#9;c-0.905-0.86-1.769-1.77-2.616-2.711c-0.422-0.475-0.839-0.952-1.246-1.46l-0.604-0.78c-0.212-0.282-0.378-0.506-0.652-0.906&#xA;&#9;&#9;&#9;&#9;&#9;L260.975,183.689z" style="fill:#CE7A63;"/>
				<polygon points="268.086,188.96 261.834,199.471 258.776,196.585 264.556,186.065" style="fill:#14365B;"/>
				<path d="M254.403,175.88c3.593-0.061,12.333,10.262,12.333,10.262l-7.594,13.23&#xA;&#9;&#9;&#9;&#9;&#9;c0,0-9.679-8.533-9.669-13.206C249.483,181.299,250.303,175.949,254.403,175.88z" style="fill:#0053CC;"/>
				<path d="M341.821,375.869c-0.254,0-0.508-0.096-0.759-0.287c-0.271-0.207-0.31-0.453-0.294-0.623&#xA;&#9;&#9;&#9;&#9;&#9;c0.096-1.075,2.798-2.499,3.105-2.657c0.071-0.035,0.157-0.027,0.219,0.023c0.062,0.051,0.088,0.133,0.065,0.21&#xA;&#9;&#9;&#9;&#9;&#9;c-0.311,1.08-0.986,2.943-2.006,3.279C342.042,375.852,341.932,375.869,341.821,375.869z M343.631,372.889&#xA;&#9;&#9;&#9;&#9;&#9;c-1.065,0.601-2.413,1.539-2.464,2.105c-0.006,0.071,0.004,0.166,0.14,0.27c0.25,0.192,0.484,0.248,0.721,0.171&#xA;&#9;&#9;&#9;&#9;&#9;C342.577,375.253,343.164,374.315,343.631,372.889z" style="fill:#407BFF;"/>
				<path d="M341.446,373.254c-0.525,0-0.989-0.09-1.25-0.314c-0.141-0.121-0.349-0.395-0.155-0.86&#xA;&#9;&#9;&#9;&#9;&#9;c0.122-0.296,0.34-0.5,0.647-0.607c1.16-0.397,3.286,0.782,3.375,0.833c0.063,0.035,0.102,0.101,0.103,0.172&#xA;&#9;&#9;&#9;&#9;&#9;c0.001,0.071-0.036,0.138-0.097,0.175C343.557,372.959,342.4,373.254,341.446,373.254z M341.244,371.788&#xA;&#9;&#9;&#9;&#9;&#9;c-0.156,0-0.3,0.02-0.425,0.063c-0.197,0.068-0.331,0.193-0.409,0.381c-0.098,0.238-0.026,0.342,0.047,0.404&#xA;&#9;&#9;&#9;&#9;&#9;c0.448,0.387,2.111,0.223,3.065-0.162C342.925,372.181,341.955,371.788,341.244,371.788z" style="fill:#407BFF;"/>
				<path d="M248.858,407.397c-0.775,0-1.497-0.119-1.958-0.468c-0.315-0.238-0.486-0.563-0.509-0.963&#xA;&#9;&#9;&#9;&#9;&#9;c-0.017-0.299,0.127-0.461,0.252-0.545c0.911-0.617,4.323,0.935,4.997,1.252c0.077,0.036,0.123,0.117,0.114,0.203&#xA;&#9;&#9;&#9;&#9;&#9;c-0.01,0.085-0.072,0.154-0.156,0.173C250.872,407.211,249.824,407.397,248.858,407.397z M247.261,405.668&#xA;&#9;&#9;&#9;&#9;&#9;c-0.172,0-0.307,0.026-0.394,0.085c-0.042,0.028-0.083,0.073-0.076,0.19c0.016,0.282,0.131,0.501,0.351,0.667&#xA;&#9;&#9;&#9;&#9;&#9;c0.788,0.595,2.67,0.369,3.765,0.171C249.674,406.245,248.064,405.668,247.261,405.668z" style="fill:#407BFF;"/>
				<path d="M251.556,407.055c-0.025,0-0.052-0.005-0.076-0.015c-1.131-0.463-3.413-2.293-3.284-3.238&#xA;&#9;&#9;&#9;&#9;&#9;c0.028-0.207,0.169-0.467,0.685-0.528c1.988-0.26,2.835,3.383,2.871,3.536c0.017,0.073-0.009,0.149-0.066,0.197&#xA;&#9;&#9;&#9;&#9;&#9;C251.648,407.038,251.602,407.055,251.556,407.055z M249.063,403.662c-0.044,0-0.089,0.003-0.135,0.008&#xA;&#9;&#9;&#9;&#9;&#9;c-0.21,0.025-0.323,0.088-0.336,0.186c-0.074,0.549,1.502,1.994,2.654,2.627C250.983,405.608,250.263,403.662,249.063,403.662z" style="fill:#407BFF;"/>
				<path d="M222,155.664l-1.682-0.27C220.318,155.394,221.306,156.562,222,155.664z" style="fill:#0F264C;"/>
			</g>
			<g>
				<path d="M159.444,85.778c-1.778,2.222-11.528,4.832-19.278,4.111&#xA;&#9;&#9;&#9;&#9;&#9;c-2.667,17.517,6.667,37.695,6.667,37.695s20.25-2.417,20.75-10.75C168.083,108.5,159.444,85.778,159.444,85.778z" style="fill:#77B3FC;"/>
				<path d="M312.729,72.453c1.812,2.546,11.013,5.078,18.111,3.755c3.812,20.743-3.246,45.377-3.246,45.377&#xA;&#9;&#9;&#9;&#9;&#9;s-18.878-1.675-19.982-11.589C306.507,100.082,312.729,72.453,312.729,72.453z" style="fill:#77B3FC;"/>
				<path d="M180.011,252.07L180.011,252.07c-0.608,0.086-1.17-0.337-1.256-0.945L154.951,82.66&#xA;&#9;&#9;&#9;&#9;&#9;c-0.086-0.608,0.337-1.17,0.945-1.256l0,0c0.608-0.086,1.17,0.337,1.256,0.945l23.804,168.465&#xA;&#9;&#9;&#9;&#9;&#9;C181.041,251.422,180.618,251.984,180.011,252.07z" style="fill:#0053CC;"/>
				<path d="M293.173,239.547L293.173,239.547c0.608,0.086,1.17-0.337,1.256-0.945l23.804-168.465&#xA;&#9;&#9;&#9;&#9;&#9;c0.086-0.608-0.337-1.17-0.945-1.256l0,0c-0.608-0.086-1.17,0.337-1.256,0.945l-23.804,168.465&#xA;&#9;&#9;&#9;&#9;&#9;C292.143,238.899,292.566,239.461,293.173,239.547z" style="fill:#0053CC;"/>
				<path d="M154.055,86.223l4.492,33.074c0.121,0.89,1.002,1.464,1.866,1.217&#xA;&#9;&#9;&#9;&#9;&#9;c10.059-2.879,65.968-17.243,151.924-8.101c0.76,0.081,1.459-0.425,1.605-1.176c1.62-8.38,4.412-32.247,5.116-38.354&#xA;&#9;&#9;&#9;&#9;&#9;c0.092-0.802-0.477-1.527-1.278-1.629c-11.543-1.462-90.313-10.195-162.717,13.362&#xA;&#9;&#9;&#9;&#9;&#9;C154.383,84.836,153.959,85.515,154.055,86.223z" style="fill:#9FC6FF;"/>
				<g>
					<path d="M168.477,91.955l4.742-0.962l3.356,8.712l0.849-9.564l4.725-0.958l4.151,8.538l0.063-9.392&#xA;&#9;&#9;&#9;&#9;&#9;&#9;l4.717-0.956l-0.617,16.902l-4.896,0.992l-4.688-9.612l-0.969,10.759l-4.896,0.992L168.477,91.955z" style="fill:#FFFFFF;"/>
					<path d="M193.403,87.117l13.491-1.98l0.44,3.487l-8.446,1.24l0.328,2.596l7.835-1.15l0.42,3.331&#xA;&#9;&#9;&#9;&#9;&#9;&#9;l-7.835,1.15l0.407,3.22l8.691-1.275l0.467,3.699l-13.737,2.016L193.403,87.117z" style="fill:#FFFFFF;"/>
					<path d="M210.325,84.726l5.055-0.545l1.083,12.372l7.89-0.851l0.354,4.041l-12.945,1.396L210.325,84.726&#xA;&#9;&#9;&#9;&#9;&#9;&#9;z" style="fill:#FFFFFF;"/>
					<path d="M237.062,92.062l4.511,1.03c-0.234,1.272-0.65,2.35-1.248,3.235&#xA;&#9;&#9;&#9;&#9;&#9;&#9;c-0.599,0.884-1.362,1.574-2.291,2.069c-0.929,0.495-2.128,0.795-3.597,0.899c-1.782,0.128-3.252-0.028-4.409-0.468&#xA;&#9;&#9;&#9;&#9;&#9;&#9;c-1.157-0.439-2.179-1.284-3.066-2.535c-0.889-1.251-1.385-2.897-1.49-4.941c-0.14-2.723,0.474-4.868,1.842-6.435&#xA;&#9;&#9;&#9;&#9;&#9;&#9;c1.368-1.566,3.372-2.444,6.013-2.632c2.066-0.148,3.711,0.155,4.937,0.909c1.224,0.754,2.169,1.979,2.833,3.676l-4.424,1.319&#xA;&#9;&#9;&#9;&#9;&#9;&#9;c-0.183-0.49-0.365-0.845-0.549-1.065c-0.304-0.369-0.667-0.644-1.087-0.824c-0.421-0.18-0.885-0.253-1.392-0.216&#xA;&#9;&#9;&#9;&#9;&#9;&#9;c-1.148,0.082-2.005,0.609-2.568,1.58c-0.427,0.721-0.603,1.818-0.527,3.292c0.093,1.825,0.434,3.056,1.021,3.693&#xA;&#9;&#9;&#9;&#9;&#9;&#9;c0.587,0.638,1.379,0.92,2.379,0.848c0.969-0.069,1.687-0.395,2.156-0.977C236.573,93.938,236.892,93.119,237.062,92.062z" style="fill:#FFFFFF;"/>
					<path d="M243.421,90.155c-0.035-2.694,0.684-4.816,2.159-6.365c1.474-1.549,3.545-2.368,6.211-2.455&#xA;&#9;&#9;&#9;&#9;&#9;&#9;c2.733-0.088,4.849,0.58,6.346,2.006c1.497,1.426,2.264,3.467,2.298,6.123c0.025,1.929-0.278,3.521-0.909,4.775&#xA;&#9;&#9;&#9;&#9;&#9;&#9;c-0.629,1.256-1.551,2.246-2.762,2.973c-1.212,0.726-2.73,1.119-4.552,1.178c-1.852,0.061-3.388-0.186-4.61-0.739&#xA;&#9;&#9;&#9;&#9;&#9;&#9;c-1.221-0.553-2.218-1.459-2.988-2.717C243.843,93.676,243.446,92.083,243.421,90.155z M248.495,90.011&#xA;&#9;&#9;&#9;&#9;&#9;&#9;c0.022,1.666,0.345,2.852,0.971,3.56c0.626,0.707,1.468,1.044,2.529,1.009c1.09-0.035,1.929-0.419,2.518-1.151&#xA;&#9;&#9;&#9;&#9;&#9;&#9;c0.588-0.733,0.87-2.021,0.847-3.867c-0.02-1.553-0.347-2.678-0.98-3.374c-0.633-0.696-1.483-1.027-2.55-0.992&#xA;&#9;&#9;&#9;&#9;&#9;&#9;c-1.024,0.033-1.84,0.424-2.45,1.172C248.767,87.116,248.473,88.331,248.495,90.011z" style="fill:#FFFFFF;"/>
					<path d="M263.511,81.288l6.672,0.054l2.299,10.065l2.828-10.024l6.668,0.053l-0.451,16.507l-4.154-0.034&#xA;&#9;&#9;&#9;&#9;&#9;&#9;l0.343-12.589l-3.544,12.563l-3.761-0.03l-2.852-12.614l-0.343,12.589l-4.154-0.033L263.511,81.288z" style="fill:#FFFFFF;"/>
					<path d="M285.639,81.583l13.572,0.604l-0.223,3.521l-8.497-0.378l-0.166,2.621l7.882,0.351l-0.214,3.363&#xA;&#9;&#9;&#9;&#9;&#9;&#9;l-7.881-0.35l-0.207,3.25l8.743,0.39l-0.236,3.735l-13.818-0.615L285.639,81.583z" style="fill:#FFFFFF;"/>
				</g>
			</g>
		</g>
	</g>
</g>
<g id="Designed_by_Freepik">
	<g>
		<g>
			<g id="XMLID_197_">
				<g id="XMLID_216_">
					<path d="M261.442,464.892c-0.49,0.502-0.91,1.054-1.255,1.646l-0.527-0.273&#xA;&#9;&#9;&#9;&#9;&#9;&#9;c-0.076-0.337-0.396-0.569-0.746-0.528c-0.375,0.044-0.643,0.384-0.599,0.759c0.044,0.375,0.384,0.643,0.758,0.599&#xA;&#9;&#9;&#9;&#9;&#9;&#9;c0.074-0.009,0.144-0.029,0.208-0.059l0.511,0.265c-0.284,0.627-0.49,1.289-0.611,1.975l0.845,0.149&#xA;&#9;&#9;&#9;&#9;&#9;&#9;c0.26-1.479,0.962-2.839,2.029-3.932L261.442,464.892z" style="fill:#A5B7C6;" id="XMLID_224_"/>
					<path d="M267.656,462.285c-0.194,0-0.386,0.007-0.577,0.019l-0.083-0.709&#xA;&#9;&#9;&#9;&#9;&#9;&#9;c0.212-0.169,0.335-0.44,0.301-0.73c-0.052-0.445-0.456-0.763-0.901-0.711c-0.445,0.052-0.763,0.455-0.711,0.901&#xA;&#9;&#9;&#9;&#9;&#9;&#9;c0.034,0.288,0.214,0.522,0.458,0.638l0.083,0.707c-0.808,0.132-1.589,0.376-2.332,0.732l0.37,0.774&#xA;&#9;&#9;&#9;&#9;&#9;&#9;c1.058-0.506,2.199-0.762,3.392-0.762c0.562,0,1.124,0.06,1.67,0.178l0.182-0.839&#xA;&#9;&#9;&#9;&#9;&#9;&#9;C268.903,462.352,268.279,462.285,267.656,462.285z" style="fill:#A5B7C6;" id="XMLID_223_"/>
					<path d="M275.133,465.17c0.375-0.046,0.641-0.387,0.595-0.761&#xA;&#9;&#9;&#9;&#9;&#9;&#9;c-0.046-0.375-0.387-0.641-0.761-0.595c-0.35,0.043-0.606,0.344-0.6,0.689l-0.471,0.411c-0.473-0.487-1.007-0.92-1.594-1.29&#xA;&#9;&#9;&#9;&#9;&#9;&#9;l-0.458,0.726c1.284,0.809,2.288,1.955,2.903,3.313l0.782-0.354c-0.284-0.627-0.643-1.214-1.067-1.75l0.455-0.397&#xA;&#9;&#9;&#9;&#9;&#9;&#9;C274.986,465.175,275.059,465.179,275.133,465.17z" style="fill:#A5B7C6;" id="XMLID_222_"/>
					<path d="M267.036,473.845c-0.437,0.026-0.878,0.039-1.31,0.039&#xA;&#9;&#9;&#9;&#9;&#9;&#9;c-0.997,0-1.962-0.069-2.807-0.203c-0.442-0.07-0.958-0.176-1.438-0.331c1.185,2.107,3.476,3.539,6.102,3.539&#xA;&#9;&#9;&#9;&#9;&#9;&#9;c3.233,0,5.959-2.17,6.737-5.1c-0.772,0.509-1.705,0.935-2.784,1.271C270.201,473.478,268.643,473.749,267.036,473.845z" style="fill:#A5B7C6;" id="XMLID_221_"/>
					<path d="M267.656,464.002c-3.796,0-6.884,3.019-6.884,6.73&#xA;&#9;&#9;&#9;&#9;&#9;&#9;c0,0.482,0.052,0.962,0.155,1.428c0.763,0.547,3.064,1.008,6.055,0.828c3.261-0.196,5.998-1.084,7.556-2.444&#xA;&#9;&#9;&#9;&#9;&#9;&#9;c-0.006-0.221-0.023-0.442-0.051-0.659C274.056,466.531,271.12,464.002,267.656,464.002z M265.211,471.38&#xA;&#9;&#9;&#9;&#9;&#9;&#9;c-1.155,0-2.095-0.94-2.095-2.095c0-1.155,0.94-2.095,2.095-2.095c1.155,0,2.095,0.94,2.095,2.095&#xA;&#9;&#9;&#9;&#9;&#9;&#9;C267.306,470.44,266.366,471.38,265.211,471.38z M270.576,470.351c-0.849,0-1.54-0.691-1.54-1.54&#xA;&#9;&#9;&#9;&#9;&#9;&#9;c0-0.849,0.691-1.541,1.54-1.541c0.849,0,1.541,0.691,1.541,1.541C272.116,469.66,271.425,470.351,270.576,470.351z" style="fill:#A5B7C6;" id="XMLID_217_"/>
				</g>
				<path d="M285.779,466.116c-0.334-0.131-0.912-0.35-1.565-0.269&#xA;&#9;&#9;&#9;&#9;&#9;c-0.624,0.078-0.956,0.386-0.956,1.14v0.981h2.523v1.945h-2.523v6.177h-2.188v-6.177h-1.517v-1.945h1.517v-1.006&#xA;&#9;&#9;&#9;&#9;&#9;c0-1.902,1.014-3.151,2.908-3.151c0.728,0,1.31,0.138,1.8,0.349L285.779,466.116z" style="fill:#A5B7C6;" id="XMLID_214_"/>
				<path d="M291.104,469.89c-0.2-0.034-0.405-0.052-0.596-0.052&#xA;&#9;&#9;&#9;&#9;&#9;c-1.014,0-1.71,0.62-1.71,1.827v4.425h-2.188v-8.122h2.12v0.888c0.511-0.763,1.291-1.106,2.288-1.106&#xA;&#9;&#9;&#9;&#9;&#9;c0.469,0,0.96,0.144,1.239,0.381L291.104,469.89z" style="fill:#A5B7C6;" id="XMLID_212_"/>
				<path d="M299.786,472.017c0,0.251-0.017,0.553-0.042,0.738h-5.758&#xA;&#9;&#9;&#9;&#9;&#9;c0.235,1.173,1.056,1.685,2.087,1.685c0.704,0,1.467-0.285,2.053-0.779l1.282,1.408c-0.922,0.846-2.095,1.232-3.461,1.232&#xA;&#9;&#9;&#9;&#9;&#9;c-2.489,0-4.216-1.693-4.216-4.249c0-2.556,1.676-4.3,4.107-4.3C298.177,467.75,299.778,469.485,299.786,472.017z&#xA;&#9;&#9;&#9;&#9;&#9; M293.995,471.262h3.595c-0.201-1.039-0.83-1.626-1.768-1.626C294.791,469.636,294.187,470.257,293.995,471.262z" style="fill:#A5B7C6;" id="XMLID_209_"/>
				<path d="M308.453,472.017c0,0.251-0.017,0.553-0.042,0.738h-5.758&#xA;&#9;&#9;&#9;&#9;&#9;c0.235,1.173,1.056,1.685,2.087,1.685c0.704,0,1.467-0.285,2.053-0.779l1.282,1.408c-0.922,0.846-2.095,1.232-3.461,1.232&#xA;&#9;&#9;&#9;&#9;&#9;c-2.489,0-4.216-1.693-4.216-4.249c0-2.556,1.676-4.3,4.107-4.3C306.843,467.75,308.444,469.485,308.453,472.017z&#xA;&#9;&#9;&#9;&#9;&#9; M302.661,471.262h3.596c-0.201-1.039-0.83-1.626-1.768-1.626C303.457,469.636,302.854,470.257,302.661,471.262z" style="fill:#A5B7C6;" id="XMLID_206_"/>
				<path d="M317.903,472.025c0,2.439-1.693,4.275-3.931,4.275&#xA;&#9;&#9;&#9;&#9;&#9;c-1.09,0-1.861-0.428-2.389-1.056v4.199h-2.179v-11.474h2.137v0.897c0.528-0.662,1.307-1.115,2.422-1.115&#xA;&#9;&#9;&#9;&#9;&#9;C316.21,467.75,317.903,469.586,317.903,472.025z M311.475,472.025c0,1.282,0.846,2.238,2.087,2.238&#xA;&#9;&#9;&#9;&#9;&#9;c1.291,0,2.095-0.997,2.095-2.238c0-1.24-0.805-2.238-2.095-2.238C312.321,469.787,311.475,470.742,311.475,472.025z" style="fill:#A5B7C6;" id="XMLID_203_"/>
				<path d="M321.418,465.311c0,0.788-0.612,1.391-1.4,1.391&#xA;&#9;&#9;&#9;&#9;&#9;c-0.788,0-1.391-0.603-1.391-1.391c0-0.788,0.604-1.408,1.391-1.408C320.806,463.903,321.418,464.524,321.418,465.311z&#xA;&#9;&#9;&#9;&#9;&#9; M321.124,476.09h-2.188v-8.122h2.188V476.09z" style="fill:#A5B7C6;" id="XMLID_200_"/>
				<path d="M324.775,470.86l3.059-2.892h2.682l-3.939,3.822l3.964,4.3h-2.69l-3.076-3.285&#xA;&#9;&#9;&#9;&#9;&#9;v3.285h-2.188v-12.069h2.188V470.86z" style="fill:#A5B7C6;" id="XMLID_198_"/>
			</g>
			<g>
				<path d="M175.729,476.016v-1.194c-0.597,0.813-1.576,1.393-2.704,1.393c-2.09,0-3.566-1.592-3.566-4.196&#xA;&#9;&#9;&#9;&#9;&#9;c0-2.555,1.46-4.213,3.566-4.213c1.078,0,2.057,0.531,2.704,1.41v-4.263h1.244v11.064H175.729z M175.729,473.843v-3.633&#xA;&#9;&#9;&#9;&#9;&#9;c-0.448-0.697-1.41-1.294-2.405-1.294c-1.609,0-2.571,1.327-2.571,3.102c0,1.775,0.962,3.085,2.571,3.085&#xA;&#9;&#9;&#9;&#9;&#9;C174.319,475.104,175.281,474.54,175.729,473.843z" style="fill:#A5B7C6;"/>
				<path d="M178.582,472.002c0-2.322,1.659-4.197,3.948-4.197c2.422,0,3.848,1.891,3.848,4.296v0.316h-6.486&#xA;&#9;&#9;&#9;&#9;&#9;c0.1,1.509,1.161,2.77,2.886,2.77c0.912,0,1.841-0.365,2.471-1.012l0.597,0.813c-0.796,0.796-1.874,1.227-3.185,1.227&#xA;&#9;&#9;&#9;&#9;&#9;C180.29,476.215,178.582,474.507,178.582,472.002z M182.513,468.834c-1.709,0-2.555,1.443-2.621,2.67h5.258&#xA;&#9;&#9;&#9;&#9;&#9;C185.134,470.31,184.337,468.834,182.513,468.834z" style="fill:#A5B7C6;"/>
				<path d="M187.273,474.955l0.647-0.895c0.531,0.614,1.543,1.145,2.637,1.145&#xA;&#9;&#9;&#9;&#9;&#9;c1.228,0,1.891-0.581,1.891-1.377c0-1.94-4.96-0.746-4.96-3.716c0-1.244,1.078-2.306,2.985-2.306&#xA;&#9;&#9;&#9;&#9;&#9;c1.36,0,2.323,0.514,2.969,1.161l-0.581,0.863c-0.481-0.581-1.36-1.012-2.389-1.012c-1.095,0-1.775,0.547-1.775,1.261&#xA;&#9;&#9;&#9;&#9;&#9;c0,1.758,4.96,0.597,4.96,3.716c0,1.344-1.078,2.422-3.151,2.422C189.197,476.215,188.086,475.817,187.273,474.955z" style="fill:#A5B7C6;"/>
				<path d="M195.053,466.031c0-0.464,0.382-0.846,0.829-0.846c0.465,0,0.846,0.381,0.846,0.846&#xA;&#9;&#9;&#9;&#9;&#9;c0,0.465-0.381,0.829-0.846,0.829C195.434,466.86,195.053,466.495,195.053,466.031z M195.268,476.016v-8.012h1.244v8.012&#xA;&#9;&#9;&#9;&#9;&#9;H195.268z" style="fill:#A5B7C6;"/>
				<path d="M198.569,478.073l0.63-0.929c0.663,0.796,1.46,1.095,2.604,1.095&#xA;&#9;&#9;&#9;&#9;&#9;c1.327,0,2.571-0.647,2.571-2.405v-1.145c-0.581,0.813-1.559,1.427-2.687,1.427c-2.09,0-3.566-1.559-3.566-4.147&#xA;&#9;&#9;&#9;&#9;&#9;c0-2.571,1.46-4.163,3.566-4.163c1.078,0,2.04,0.531,2.687,1.41v-1.211h1.244v7.78c0,2.654-1.858,3.483-3.815,3.483&#xA;&#9;&#9;&#9;&#9;&#9;C200.443,479.267,199.514,479.002,198.569,478.073z M204.374,473.711v-3.5c-0.432-0.697-1.393-1.294-2.389-1.294&#xA;&#9;&#9;&#9;&#9;&#9;c-1.609,0-2.571,1.277-2.571,3.052c0,1.758,0.962,3.052,2.571,3.052C202.981,475.021,203.943,474.408,204.374,473.711z" style="fill:#A5B7C6;"/>
				<path d="M213.099,476.016v-5.242c0-1.41-0.713-1.858-1.791-1.858c-0.979,0-1.908,0.597-2.372,1.244v5.855&#xA;&#9;&#9;&#9;&#9;&#9;h-1.244v-8.012h1.244v1.161c0.564-0.663,1.658-1.36,2.853-1.36c1.675,0,2.555,0.846,2.555,2.588v5.623H213.099z" style="fill:#A5B7C6;"/>
				<path d="M215.952,472.002c0-2.322,1.659-4.197,3.948-4.197c2.422,0,3.848,1.891,3.848,4.296v0.316h-6.486&#xA;&#9;&#9;&#9;&#9;&#9;c0.099,1.509,1.161,2.77,2.886,2.77c0.912,0,1.841-0.365,2.472-1.012l0.597,0.813c-0.796,0.796-1.874,1.227-3.185,1.227&#xA;&#9;&#9;&#9;&#9;&#9;C217.66,476.215,215.952,474.507,215.952,472.002z M219.883,468.834c-1.708,0-2.555,1.443-2.621,2.67h5.258&#xA;&#9;&#9;&#9;&#9;&#9;C222.503,470.31,221.707,468.834,219.883,468.834z" style="fill:#A5B7C6;"/>
				<path d="M231.146,476.016v-1.194c-0.597,0.813-1.576,1.393-2.704,1.393c-2.09,0-3.566-1.592-3.566-4.196&#xA;&#9;&#9;&#9;&#9;&#9;c0-2.555,1.46-4.213,3.566-4.213c1.078,0,2.057,0.531,2.704,1.41v-4.263h1.244v11.064H231.146z M231.146,473.843v-3.633&#xA;&#9;&#9;&#9;&#9;&#9;c-0.448-0.697-1.41-1.294-2.405-1.294c-1.609,0-2.571,1.327-2.571,3.102c0,1.775,0.962,3.085,2.571,3.085&#xA;&#9;&#9;&#9;&#9;&#9;C229.736,475.104,230.697,474.54,231.146,473.843z" style="fill:#A5B7C6;"/>
				<path d="M238.327,476.016v-11.064h1.244v4.263c0.647-0.879,1.609-1.41,2.704-1.41&#xA;&#9;&#9;&#9;&#9;&#9;c2.09,0,3.566,1.659,3.566,4.213c0,2.604-1.476,4.196-3.566,4.196c-1.128,0-2.107-0.581-2.704-1.393v1.194H238.327z&#xA;&#9;&#9;&#9;&#9;&#9; M241.96,475.104c1.626,0,2.588-1.31,2.588-3.085c0-1.775-0.962-3.102-2.588-3.102c-0.979,0-1.957,0.597-2.388,1.294v3.633&#xA;&#9;&#9;&#9;&#9;&#9;C240.003,474.54,240.981,475.104,241.96,475.104z" style="fill:#A5B7C6;"/>
				<path d="M247.201,478.023c0.182,0.083,0.481,0.133,0.68,0.133c0.547,0,0.912-0.182,1.194-0.846&#xA;&#9;&#9;&#9;&#9;&#9;l0.531-1.211l-3.351-8.095h1.344l2.671,6.569l2.654-6.569h1.36l-4.014,9.637c-0.481,1.161-1.294,1.609-2.356,1.625&#xA;&#9;&#9;&#9;&#9;&#9;c-0.265,0-0.68-0.05-0.912-0.116L247.201,478.023z" style="fill:#A5B7C6;"/>
			</g>
		</g>
	</g>
</g>
</svg>